<?xml version="1.0" encoding="utf-8"?>
<!-- Generator: Adobe Illustrator 16.0.4, SVG Export Plug-In . SVG Version: 6.00 Build 0)  -->
<!DOCTYPE svg PUBLIC "-//W3C//DTD SVG 1.1//EN" "http://www.w3.org/Graphics/SVG/1.1/DTD/svg11.dtd">
<svg version="1.1" id="Logo_x5F_DAFUER_1_" xmlns="http://www.w3.org/2000/svg" xmlns:xlink="http://www.w3.org/1999/xlink" x="0px"
	 y="0px" width="489px" height="177px" viewBox="0 0 489 177" enable-background="new 0 0 489 177" xml:space="preserve">
<g>
	<g>
		<path fill-rule="evenodd" clip-rule="evenodd" fill="#4C4C4C" d="M467.386,148.421l-23.728-33.658h-20.242v33.658h-18.287V98.409
			h42.458c5.884,0,10.615-1.435,14.065-4.263c3.46-2.841,5.14-6.554,5.14-11.353c0-5.096-1.678-8.982-4.988-11.552
			c-3.357-2.606-8.191-3.929-14.356-3.929h-42.318V50.547h43.698c5.557,0,10.66,0.73,15.167,2.168
			c4.521,1.445,8.403,3.532,11.538,6.195c3.146,2.677,5.597,6.007,7.281,9.896c1.682,3.886,2.537,8.265,2.537,13.022
			c0,4.101-0.594,7.819-1.766,11.051c-1.165,3.22-2.803,6.117-4.871,8.611c-2.059,2.478-4.551,4.615-7.405,6.349
			c-2.593,1.573-5.474,2.831-8.574,3.747l26.269,36.835H467.386z"/>
		<path fill-rule="evenodd" clip-rule="evenodd" fill="#4C4C4C" d="M343.289,149.938c-6.299,0-12.08-0.918-17.188-2.725
			c-5.132-1.826-9.575-4.593-13.206-8.229c-3.636-3.633-6.473-8.193-8.431-13.55c-1.948-5.34-2.938-11.611-2.938-18.642V50.547
			h18.28v55.559c0,8.796,2.124,15.559,6.313,20.105c4.171,4.526,10.04,6.824,17.447,6.824c7.32,0,13.146-2.205,17.32-6.556
			c4.18-4.361,6.3-10.984,6.3-19.687V50.547h18.282v55.417c0,7.209-1.012,13.645-3.004,19.124c-2.002,5.49-4.86,10.142-8.499,13.826
			c-3.635,3.685-8.103,6.473-13.279,8.299C355.531,149.02,349.682,149.938,343.289,149.938z"/>
		<polygon fill-rule="evenodd" clip-rule="evenodd" fill="#4C4C4C" points="210.221,148.421 210.221,92.341 277.198,92.341 
			277.198,109.106 228.506,109.106 228.506,148.421 		"/>
		<rect x="210.221" y="50.547" fill-rule="evenodd" clip-rule="evenodd" fill="#4C4C4C" width="73.182" height="16.766"/>
		<path fill-rule="evenodd" clip-rule="evenodd" fill="#178DCB" d="M175.956,148.421c0,0-26.33-61.577-32.25-75.275
			c-6.949,16.213-32.261,75.275-32.261,75.275H92.62l43.066-97.873h16.584l43.069,97.873H175.956z"/>
		<path fill-rule="evenodd" clip-rule="evenodd" fill="#4C4C4C" d="M0.002,148.419V50.548h36.662c7.583,0,14.646,1.244,20.997,3.7
			c6.347,2.455,11.894,5.912,16.489,10.274c4.601,4.371,8.203,9.597,10.705,15.533c2.507,5.94,3.777,12.432,3.777,19.29
			s-1.27,13.369-3.777,19.355c-2.502,5.987-6.104,11.236-10.705,15.606c-4.592,4.36-10.138,7.84-16.485,10.34
			c-6.352,2.503-13.416,3.772-21,3.772H0.002z M36.664,131.655c4.951,0,9.512-0.796,13.554-2.371
			c4.037-1.572,7.512-3.796,10.324-6.611c2.821-2.82,5.047-6.226,6.614-10.124c1.57-3.9,2.365-8.251,2.365-12.928
			c0-4.681-0.795-9.028-2.365-12.927c-1.566-3.895-3.793-7.327-6.618-10.199c-2.815-2.862-6.289-5.132-10.326-6.747
			c-4.039-1.615-8.598-2.434-13.549-2.434H18.285v64.341H36.664z"/>
	</g>
	<g>
		<path fill-rule="evenodd" clip-rule="evenodd" fill="#178DCB" d="M329.841,27.063c4.498,0,8.143,3.644,8.143,8.139
			c0,4.494-3.645,8.139-8.143,8.139c-4.492,0-8.14-3.645-8.14-8.139C321.701,30.707,325.349,27.063,329.841,27.063L329.841,27.063z"
			/>
		<path fill-rule="evenodd" clip-rule="evenodd" fill="#178DCB" d="M357.289,27.063c4.497,0,8.145,3.644,8.145,8.139
			c0,4.494-3.647,8.139-8.145,8.139c-4.492,0-8.138-3.645-8.138-8.139C349.152,30.707,352.797,27.063,357.289,27.063L357.289,27.063
			z"/>
	</g>
</g>
</svg>
